<?xml version="1.0" encoding="utf-8"?>
<svg viewBox="-3 -3 906 942" xmlns="http://www.w3.org/2000/svg">
  <g id="deeditor_bgCarrier" stroke-width="0" transform="matrix(1, 0, 0, 1, 1.4210854715202004e-14, 1.4210854715202004e-14)">
    <rect id="dee_c_e" x="-3" y="-3" width="906" height="942" rx="38.4" fill="#121212" strokewidth="0"/>
  </g>
  <g transform="matrix(0.10000000149011613, 0, 0, -0.10000000149011613, 1.4210854715202004e-14, 936.0000000000001)" fill="#ffffff" stroke="none">
    <path d="M2003 6643 c-125 -4 -126 -5 -103 -77 10 -33 93 -302 115 -376 46 -153 163 -529 211 -680 16 -51 81 -267 96 -320 15 -56 97 -330 115 -385 43 -138 56 -181 129 -430 65 -224 86 -297 126 -425 15 -52 35 -117 43 -145 73 -249 140 -476 164 -555 16 -52 50 -167 75 -255 26 -88 67 -225 92 -305 24 -80 51 -170 60 -200 9 -30 24 -77 33 -105 l16 -50 440 -5 c492 -6 461 -10 483 68 15 53 153 459 197 577 20 55 40 114 45 130 4 17 24 77 44 135 20 58 63 184 96 280 32 96 73 213 90 260 17 47 37 103 44 125 8 22 28 78 46 125 30 83 71 206 131 400 16 52 36 111 43 130 13 32 84 213 123 315 8 22 19 50 24 63 5 13 38 105 74 205 65 180 85 233 110 292 8 17 34 80 58 140 25 61 72 175 105 255 76 183 126 310 162 413 16 45 49 132 75 192 72 169 77 186 64 202 -10 11 -77 14 -387 13 -207 -1 -385 -5 -396 -10 -15 -6 -33 -40 -65 -121 -56 -146 -107 -271 -136 -334 -35 -77 -70 -166 -121 -305 -24 -68 -61 -163 -83 -215 -5 -11 -19 -45 -31 -75 -12 -30 -32 -77 -45 -105 -24 -54 -109 -259 -130 -315 -8 -19 -25 -64 -38 -100 -14 -36 -72 -184 -130 -330 -97 -245 -210 -537 -277 -720 -16 -41 -41 -111 -58 -155 -43 -117 -52 -112 -102 47 -23 73 -55 171 -70 218 -15 47 -42 132 -60 190 -18 58 -39 123 -46 145 -15 45 -103 342 -159 540 -42 146 -91 310 -110 370 -7 22 -20 65 -29 95 -8 30 -28 100 -44 155 -16 55 -44 152 -62 215 -18 63 -38 131 -45 150 -7 19 -20 62 -30 95 -9 33 -23 78 -30 100 -7 22 -34 114 -59 205 -26 91 -55 185 -64 210 l-18 45 -344 0 c-190 1 -396 -1 -457 -2z" fill="#ffffff"/>
    <path d="M4233 6642 c-312 -2 -333 -3 -333 -20 0 -10 4 -22 8 -27 10 -11 86 -193 131 -310 35 -94 105 -274 166 -430 23 -60 46 -120 49 -132 9 -27 44 -31 52 -5 7 22 33 89 49 127 7 17 20 48 28 70 9 22 36 92 60 155 25 63 60 153 77 200 18 47 45 117 60 155 57 139 74 195 62 207 -14 14 -16 14 -409 10z" fill="#ffffff"/>
    <path d="M6768 6643 c-20 -5 -54 -108 -164 -493 -8 -30 -29 -98 -45 -150 -16 -52 -76 -255 -134 -450 -58 -195 -112 -373 -119 -395 -17 -50 -36 -114 -85 -285 -105 -364 -152 -522 -186 -625 -7 -22 -21 -67 -30 -100 -10 -33 -24 -78 -31 -100 -6 -22 -27 -92 -45 -155 -18 -63 -36 -119 -41 -124 -14 -17 -26 6 -72 139 -24 72 -66 189 -91 260 -53 147 -144 406 -210 600 -72 211 -75 219 -84 240 -5 11 -30 79 -56 150 -62 174 -63 177 -77 173 -6 -2 -16 -17 -21 -34 -5 -16 -25 -69 -44 -119 -19 -49 -46 -119 -60 -155 -14 -36 -31 -78 -38 -95 -7 -16 -54 -142 -104 -280 -51 -137 -99 -265 -107 -283 -7 -18 -14 -39 -14 -46 0 -8 -7 -27 -15 -42 -27 -52 -28 -90 -6 -162 11 -37 30 -96 40 -132 11 -36 70 -211 131 -390 62 -179 115 -338 120 -355 9 -34 32 -102 118 -355 33 -96 85 -254 116 -350 31 -96 60 -181 65 -188 6 -11 95 -13 447 -12 402 0 440 2 455 18 9 9 33 71 53 137 20 66 43 138 50 160 18 53 66 213 106 355 18 63 66 228 107 365 40 138 80 275 89 305 9 30 35 118 59 195 24 77 64 210 89 295 25 85 59 198 75 250 16 52 43 142 61 200 17 58 56 182 86 277 71 225 186 603 288 948 31 105 60 201 65 215 8 22 54 165 156 489 19 61 23 87 15 95 -11 11 -874 20 -912 9z" fill="#ffffff"/>
  </g>
</svg>